<svg width="263" height="49" viewBox="0 0 263 49" fill="none" xmlns="http://www.w3.org/2000/svg">
<path d="M16.05 26.11C15.455 24.815 14.3 23.8 12.97 23.31C11.955 22.925 10.87 22.855 9.82 22.715C8.84 22.575 7.615 22.4 7.16 21.455C6.81 20.755 6.915 19.915 7.405 19.32C8.665 17.85 10.94 19.145 12.13 20.055C14.02 21.56 16.26 18.585 14.37 17.115C12.025 15.26 8.98 14.315 6.18 15.785C4.01 16.905 2.785 19.355 3.31 21.77C3.695 23.59 5.06 24.745 6.705 25.445C7.51 25.83 8.385 26.075 9.225 26.32C10.135 26.6 11.08 26.74 11.745 27.44C12.06 27.755 12.305 28.175 12.445 28.595C12.865 29.96 12.06 30.8 10.905 31.325C10.275 31.64 9.4 31.5 8.735 31.36C7.37 31.045 5.935 30.31 4.955 29.295C3.275 27.58 0.335 29.89 2.015 31.57C4.045 33.635 7.09 35 9.995 35.07C13.18 35.105 15.7 33.18 16.365 30.065C16.645 28.7 16.68 27.405 16.05 26.11ZM56.4321 13.615C55.6621 13.86 54.8571 14 54.0521 13.895C53.5621 13.86 53.0021 14 52.5121 14.455C48.6271 18.27 47.6471 24.36 50.9721 28.875C54.1921 33.355 60.5971 34.825 65.3221 31.815C69.9071 28.91 71.4121 22.785 68.7171 18.06C66.1271 13.58 61.0521 12.145 56.4321 13.615ZM62.2071 28.91C56.0471 31.465 51.6721 24.955 53.6671 19.845C54.0521 18.795 55.0671 18.2 56.1521 17.99C56.3271 17.955 56.5371 17.885 56.7121 17.78C64.3771 13.895 70.1171 25.62 62.2071 28.91ZM107.777 14.385C107.567 13.65 107.042 13.125 106.272 13.055C105.747 13.02 93.6021 13.195 92.9721 13.09C92.4471 13.02 91.9221 13.125 91.5021 13.51C90.8721 14.105 90.7671 15.19 91.0821 15.96C91.4671 16.94 92.4471 17.255 93.4271 16.94C95.6671 16.205 97.3471 17.325 97.1721 19.67C96.9271 23.03 96.9971 35.91 97.4521 39.27C97.7671 41.79 101.792 41.825 101.442 39.27C100.952 35.42 100.882 22.015 101.302 18.165C101.477 16.345 102.947 15.61 104.557 16.555C105.362 17.045 106.517 17.36 107.287 16.625C107.847 16.065 107.987 15.12 107.777 14.385ZM78.0621 13.51C77.4671 13.685 76.8371 13.825 76.2071 13.72C75.7871 13.685 75.3671 13.79 74.9821 14.175C71.9021 17.185 71.1321 22.015 73.7571 25.585C76.3121 29.12 81.3521 30.275 85.0971 27.895C88.7371 25.585 89.9271 20.755 87.7921 17.01C85.7621 13.475 81.7021 12.32 78.0621 13.51ZM81.7371 23.975C78.3071 25.41 75.8221 21.805 76.9421 18.935C77.1871 18.34 77.7471 17.99 78.3421 17.885C78.4471 17.85 78.5521 17.815 78.6571 17.78C82.9621 15.61 86.1471 22.155 81.7371 23.975ZM87.8271 31.605C87.8271 31.57 87.8271 31.535 87.7921 31.535C87.7921 31.5 87.7571 31.465 87.7221 31.43C87.6521 31.36 87.5821 31.255 87.5121 31.185C87.5121 31.15 87.4771 31.15 87.4421 31.115C87.4071 31.045 87.3371 31.01 87.3021 30.94C87.1621 30.835 87.0571 30.695 86.8821 30.59C86.5671 30.415 86.1121 30.38 85.6921 30.345C84.7821 30.31 83.8721 30.31 82.9621 30.345C82.4721 30.38 81.9471 30.415 81.4571 30.485H80.8971C80.6521 30.485 80.4071 30.52 80.1621 30.555C79.7771 30.625 79.4271 30.73 79.0421 30.8C78.3421 30.905 77.6071 30.905 76.9071 30.8C76.4871 30.73 76.0321 30.625 75.5771 30.625C75.2271 30.59 74.8421 30.625 74.4921 30.73C73.7921 30.94 73.2321 31.36 72.9521 31.885C72.7071 32.445 72.7771 33.075 73.2321 33.53C73.6171 33.95 74.2471 34.195 74.8771 34.335C75.5421 34.44 76.2071 34.44 76.8721 34.44C79.6371 34.44 82.4021 34.44 85.1321 34.44C85.4471 34.44 85.7971 34.44 86.0771 34.37C86.3921 34.265 86.6721 34.125 86.9171 33.985C87.3021 33.775 87.6871 33.565 87.9321 33.25C87.9671 33.215 88.0021 33.18 88.0371 33.145C88.2471 32.795 88.2471 32.375 88.0721 31.99C88.0021 31.85 87.9321 31.71 87.8271 31.605ZM55.1371 35.63C51.2521 36.4 47.3321 36.575 46.9121 31.71C46.7021 29.4 46.8421 27.02 46.8071 24.71C46.7371 21.315 47.2621 16.835 44.7071 14.105C42.9221 12.18 39.9471 11.62 37.8121 13.3C34.9071 15.61 35.1171 20.405 34.6271 23.73C34.5221 24.465 34.5921 25.935 34.1371 26.53C33.7171 27.09 33.1571 27.58 32.4221 27.3C31.9321 27.125 31.5821 26.705 31.4071 26.215C31.1971 25.76 31.1621 25.235 31.1271 24.745C30.9521 22.54 31.5121 20.23 31.1621 18.095C30.7071 15.155 28.7121 12.355 25.5621 12.18C22.4121 11.97 20.2421 14.7 19.6121 17.535C18.5271 22.295 19.0521 27.825 18.9121 32.655C18.8071 35.245 22.8321 35.245 22.9021 32.655C22.9721 30.45 23.0421 28.245 23.1121 26.04C23.2171 23.52 22.8321 19.005 25.3171 17.43C27.2771 16.17 27.3471 19.635 27.2421 20.79C27.1021 22.4 26.7871 23.835 27.0321 25.48C27.5921 29.435 30.8121 33.95 35.1871 31.115C36.6921 30.1 37.6721 28.42 38.1971 26.67C38.6521 25.2 38.7571 23.695 38.8621 22.155C38.9321 21.14 38.8621 19.6 39.3871 18.69C40.5071 16.625 42.5371 18.13 42.7121 19.915C43.0621 24.01 42.6421 28.175 42.9221 32.27C43.4121 39.83 49.9921 40.74 56.1871 39.48C58.7071 38.955 57.6571 35.105 55.1371 35.63ZM146.975 30.905C145.015 30.905 143.37 29.435 143.16 27.475C142.95 25.2 142.81 22.12 143.3 19.355C143.51 18.235 144.525 17.395 145.68 17.395C148.515 17.395 148.235 12.6 144.875 13.51C142.39 13.51 140.08 13.545 137.595 13.545C133.465 12.285 133.815 19.53 138.68 16.765C139.31 16.415 139.8 16.695 139.8 17.395C139.8 17.395 139.73 23.765 139.695 27.755C139.66 29.505 138.225 30.905 136.475 30.905C133.85 30.905 133.885 35.07 136.615 34.93C140.045 34.93 143.44 34.93 146.87 34.93C149.565 35.07 149.6 30.905 146.975 30.905ZM146.03 10.08C147.71 12.04 150.545 9.17 148.865 7.245C143.51 0.979998 133.955 0.944998 128.81 7.525C126.045 11.025 124.995 15.365 124.645 19.845C124.505 21.315 123.315 22.575 121.81 22.575H115.895C115.09 22.575 114.39 22.085 114.04 21.385C114.04 20.265 114.005 19.145 114.005 18.06C114.005 17.78 113.97 17.57 113.9 17.36L113.935 14.98C113.97 12.145 109.14 12.425 110.015 15.82C109.98 20.825 110.365 25.865 109.665 30.835C109.455 32.48 109.21 34.09 108.615 35.63C108.3 36.47 107.915 37.24 107.495 38.045C106.445 39.865 105.115 41.685 103.155 42.455C101.895 42.945 100.53 42.98 99.1649 43.015C98.6749 43.015 98.1849 43.015 97.6949 42.91C97.0649 42.77 96.4699 42.455 95.9099 42.105C94.8949 41.475 93.7049 40.845 92.7949 40.04C92.1999 39.48 91.8149 38.85 90.8699 38.99C89.2949 39.27 88.6299 41.3 89.6449 42.455C94.9999 48.72 104.555 48.755 109.735 42.175C111.31 40.145 112.57 37.625 112.92 35.07C113.235 32.795 112.57 27.965 115.16 26.845C115.685 26.635 116.28 26.565 116.84 26.565C119.045 26.425 121.285 26.6 123.49 26.6C123.84 26.6 124.155 26.67 124.47 26.845C124.47 28.455 124.505 30.065 124.505 31.64C124.505 34.195 128.495 34.195 128.53 31.64C128.53 26.145 128.075 20.195 129.545 14.91C131.715 7.21 140.22 3.255 146.03 10.08ZM164.461 31.605C160.716 32.095 156.026 33.145 155.011 28.49V28.455C154.871 27.825 155.361 27.23 156.026 27.23H161.276C164.181 27.23 163.796 22.12 160.121 23.45C156.971 24.57 154.521 22.715 154.731 19.355V19.25C154.801 18.34 155.571 17.64 156.481 17.675C159.141 17.745 161.801 17.815 164.461 17.885C167.576 17.955 167.331 13.58 162.466 13.58C159.631 13.44 157.566 13.72 154.766 13.58C152.386 13.475 151.126 14.35 151.021 15.925C150.741 19.46 150.671 23.03 150.881 26.6C150.986 28.7 150.916 31.255 152.246 33.04C155.046 36.75 160.436 36.12 164.461 35.63C166.981 35.315 167.016 31.29 164.461 31.605ZM172.713 31.885C172.713 31.78 172.678 31.71 172.608 31.605C172.328 31.15 171.698 30.94 171.208 30.695C170.998 30.625 170.823 30.52 170.613 30.52C170.193 30.45 169.598 30.555 169.248 30.8C168.758 31.08 168.688 31.535 168.548 32.06C168.478 32.27 168.408 32.48 168.338 32.69C168.128 33.39 168.303 34.125 168.723 34.685C169.143 35.21 169.773 35.49 170.438 35.525C170.823 35.56 172.118 35.42 172.223 34.895C172.223 34.825 172.223 34.72 172.223 34.65C172.293 34.44 172.538 34.37 172.678 34.195C172.818 34.02 172.818 33.81 172.818 33.6C172.818 33.04 172.888 32.445 172.713 31.885ZM192.848 30.38C190.293 30.415 187.773 30.45 185.218 30.485C184.028 30.485 182.523 30.8 181.403 30.52C180.423 30.275 179.618 30.835 180.178 29.47C180.738 28.035 184.168 25.97 185.428 24.92C187.073 23.45 189.103 22.12 190.433 20.37C191.903 18.48 192.008 15.68 189.628 14.455C188.158 13.65 186.093 13.93 184.518 13.93C181.858 13.86 179.198 13.825 176.573 13.79C173.983 13.755 173.983 17.745 176.573 17.78C179.198 17.85 181.858 17.885 184.518 17.92C184.938 17.92 185.393 17.92 185.848 17.955C187.318 17.64 187.563 17.885 186.548 18.655C186.268 19.39 184.658 20.3 184.063 20.79C181.508 22.995 176.818 25.725 175.558 29.015C174.578 31.57 176.013 33.95 178.673 34.44C183.083 35.245 188.333 34.44 192.848 34.405C195.438 34.37 195.438 30.345 192.848 30.38ZM214.764 19.145C212.209 14.665 207.099 13.195 202.479 14.7C201.709 14.945 200.904 15.085 200.134 14.98C199.609 14.91 199.049 15.085 198.559 15.54C194.674 19.355 193.729 25.445 197.019 29.96C200.239 34.405 206.644 35.875 211.369 32.9C215.954 29.96 217.459 23.835 214.764 19.145ZM208.254 29.96C202.094 32.55 197.719 26.04 199.714 20.93C200.099 19.88 201.114 19.25 202.199 19.04C202.374 19.005 202.584 18.97 202.759 18.865C210.424 14.98 216.164 26.67 208.254 29.96ZM237.666 17.535C237.386 14.98 233.396 14.945 233.641 17.535C233.886 19.915 234.131 22.26 234.376 24.64C234.481 25.69 234.831 27.02 234.376 28C233.641 29.75 232.731 29.225 231.786 27.825C230.386 25.725 229.196 23.38 227.901 21.175C226.956 19.53 226.116 17.325 224.611 16.1C222.441 14.315 219.291 15.05 218.591 17.885C218.136 19.705 218.451 28.875 218.801 31.535C219.116 34.055 223.106 34.09 222.791 31.535C222.476 28.875 222.546 21.245 222.511 20.125C222.441 18.235 226.081 26.04 227.481 28.455C228.391 29.96 229.231 31.605 230.736 32.62C233.326 34.37 236.511 33.215 237.841 30.52C239.661 26.845 238.051 21.385 237.666 17.535ZM255.003 31.605C251.258 32.095 246.568 33.145 245.553 28.49V28.455C245.413 27.825 245.903 27.23 246.568 27.23H251.818C254.723 27.23 254.338 22.12 250.663 23.45C247.513 24.57 245.063 22.715 245.273 19.355V19.25C245.343 18.34 246.113 17.64 247.023 17.675C249.683 17.745 252.343 17.815 255.003 17.885C258.118 17.955 257.873 13.58 253.008 13.58C250.173 13.44 248.108 13.72 245.308 13.58C242.928 13.475 241.668 14.35 241.563 15.925C241.283 19.46 241.213 23.03 241.423 26.6C241.528 28.7 241.458 31.255 242.788 33.04C245.588 36.75 250.978 36.12 255.003 35.63C257.523 35.315 257.558 31.29 255.003 31.605Z" fill="white"/>
</svg>
